<?xml version="1.0" encoding="utf-8"?>
<!-- Generator: Adobe Illustrator 27.1.0, SVG Export Plug-In . SVG Version: 6.00 Build 0)  -->
<svg version="1.1" id="Layer_1" xmlns="http://www.w3.org/2000/svg" xmlns:xlink="http://www.w3.org/1999/xlink" x="0px" y="0px"
	 viewBox="0 0 847.2 289.8" style="enable-background:new 0 0 847.2 289.8;" xml:space="preserve">
<style type="text/css">
	.st0{fill:#F6C700;}
</style>
<g>
	<path class="st0" d="M824.1,0c-52.9,0-475.7,0-528.6,0c0,0,0,0,0,0C174,0,50.3,0,23.3,0C10.1,2.2,0,14.2,0,28.6
		c0,23.2,0,209,0,232.2c0,16,12.4,29,27.6,29c26.9,0,151.3,0,272.3,0c112.7,0,222.4,0,247.4,0c121,0,245.6,0,272.5,0
		c14.1,0,25.7-11,27.4-25.3c0-47.9,0-215.7,0-239.7C845.7,12.1,836.2,2,824.1,0z"/>
	<g>
		<path id="g5jjnq26yS" d="M340.2,58.2h45.6v175.6h-45.6V58.2z"/>
		<path id="i3Prh1JpXt" d="M472,139.1c-3.9-26.8-6.1-41.6-6.5-44.6c-1.9-14.3-3.7-26.8-5.5-37.4c-4,0-23.7,0-59.2,0v175.7h40
			l0.1-116l16.8,116h28.5l16-118.6l0.1,118.6h39.8V57.1h-59.6L472,139.1z"/>
		<path id="a4ov9rRGQm" d="M617.6,93.6c0.5,2.2,0.8,7.3,0.8,15.3c0,6.8,0,61.3,0,68.1c0,11.7-0.8,18.8-2.3,21.5
			c-1.5,2.6-5.6,3.9-12.1,3.9c0-11.5,0-103.8,0-115.3c5,0,8.4,0.5,10.2,1.6C615.9,89.8,617.1,91.4,617.6,93.6z M638.2,230.9
			c5.4-1.2,10-3.3,13.7-6.3c3.7-3,6.3-7.1,7.8-12.5c1.5-5.3,2.4-15.8,2.4-31.6c0-6.2,0-55.5,0-61.7c0-16.6-0.7-27.8-1.7-33.4
			c-1-5.7-3.5-10.8-7.6-15.4c-4.1-4.6-10-7.9-17.8-10c-7.8-2-20.5-3-42.6-3c-2.3,0-13.6,0-34,0v175.7h55.3
			C626.4,232.3,634.5,231.8,638.2,230.9z"/>
		<path id="fk968BpsX" d="M735.6,204.7c-0.8,2.2-4.5,3.4-7.3,3.4c-2.7,0-4.5-1.1-5.4-3.2c-0.9-2.2-1.4-7.1-1.4-14.8
			c0-4.6,0-41.8,0-46.4c0-8,0.4-13,1.2-15c0.8-2,2.6-3,5.3-3c2.8,0,6.5,1.1,7.5,3.4c1,2.3,1.4,7.1,1.4,14.6c0,3,0,18,0,45
			C736.6,197.8,736.2,203.2,735.6,204.7z M677.5,231.2h41.1c1.7-6.7,2.6-10.4,2.8-11.2c3.7,4.5,7.8,7.9,12.3,10.1
			c4.5,2.2,11.2,3.4,16.3,3.4c7.2,0,13.4-1.9,18.7-5.7c5.2-3.8,8.6-8.3,10-13.4c1.4-5.2,2.1-13,2.1-23.5c0-4.9,0-44.4,0-49.3
			c0-10.6-0.2-17.5-0.7-20.8c-0.5-3.2-1.9-6.6-4.2-10c-2.3-3.4-5.7-6-10.2-7.9c-4.4-1.9-9.7-2.8-15.7-2.8c-5.2,0-12,1-16.5,3.1
			c-4.5,2.1-8.5,5.2-12.2,9.4c0-3.8,0-22.8,0-57.1h-44V231.2z"/>
		<path id="i3Prh1JpXt_00000132078685320700571100000013480833063025609350_" d="M137.5,140.3c-3.9-26.8-6.1-41.6-6.5-44.6
			c-1.9-14.3-3.7-26.8-5.5-37.4c-3.9,0-23.7,0-59.2,0v175.6h40l0.1-116l16.8,116h28.5l15.9-118.6l0.1,118.6h39.8V58.2h-59.6
			L137.5,140.3z"/>
		<g>
			<path d="M327.2,87.1l-13.4,111.5c-2.1,17.6-3.9,29.7-5.3,36.1c-1.4,6.4-3.8,11.7-7.1,15.9c-3.3,4.2-8,7.3-13.9,9.2
				c-5.9,2-15.4,3-28.4,3h-28.4v-24.6c7.3,0,12-0.4,14.1-1.1s3.1-2.4,3.1-4.9c0-1.2-1-6.6-2.9-16.1L219.3,87.1h42.6l15.4,104
				l7.5-104H327.2z"/>
		</g>
	</g>
</g>
</svg>
